# xmcd
#
# Track frame offsets:
#	150
#	27056
#	50969
#	67848
#	98896
#	143661
#	175683
#	201183
#	227437
#	256771
#
# Disc length: 3911 seconds
#
# Revision: 1
# Processed by: cddbd v1.5.2PL0 Copyright (c) Steve Scherf et al.
# Submitted via: audiograbber 1.83.01
#
DISCID=7c0f450a
DTITLE=Rough Grooves - Live At BB's
DYEAR=2007
DGENRE=Blues
TTITLE0=Lumpty-Dumpty
TTITLE1=Call My Job
TTITLE2=Don't Start Me Talking
TTITLE3=Help Me
TTITLE4=The Things I Used To Do
TTITLE5=Hoochie Coochie Man
TTITLE6=Wait On Time
TTITLE7=Phone Booth
TTITLE8=Howlin' For My Darlin'
TTITLE9=Shake Your Money Maker
EXTD=
EXTT0=
EXTT1=
EXTT2=
EXTT3=
EXTT4=
EXTT5=
EXTT6=
EXTT7=
EXTT8=
EXTT9=
PLAYORDER=
